<mxfile host="app.diagrams.net" modified="2021-02-14T13:56:03.918Z" agent="5.0 (Windows NT 10.0; Win64; x64) AppleWebKit/537.36 (KHTML, like Gecko) Chrome/88.0.4324.41 YaBrowser/21.2.0.1097 Yowser/2.5 Safari/537.36" etag="cV3z3Rxqoh4ualY4f2Lf" version="14.3.1" type="github">
  <diagram id="fdaFz8g7WsJd5ks0n-gx" name="Page-1">
    <mxGraphModel dx="775" dy="544" grid="1" gridSize="10" guides="1" tooltips="1" connect="1" arrows="1" fold="1" page="1" pageScale="1" pageWidth="827" pageHeight="1169" math="0" shadow="0">
      <root>
        <mxCell id="0" />
        <mxCell id="1" parent="0" />
        <mxCell id="Tfnw866Hx88FF2iFjDKs-1" value="HTML" style="rounded=1;whiteSpace=wrap;html=1;" vertex="1" parent="1">
          <mxGeometry x="120" y="160" width="120" height="40" as="geometry" />
        </mxCell>
        <mxCell id="Tfnw866Hx88FF2iFjDKs-3" style="edgeStyle=orthogonalEdgeStyle;rounded=0;orthogonalLoop=1;jettySize=auto;html=1;exitX=0.5;exitY=0;exitDx=0;exitDy=0;entryX=0.5;entryY=1;entryDx=0;entryDy=0;" edge="1" parent="1" source="Tfnw866Hx88FF2iFjDKs-2" target="Tfnw866Hx88FF2iFjDKs-1">
          <mxGeometry relative="1" as="geometry" />
        </mxCell>
        <mxCell id="Tfnw866Hx88FF2iFjDKs-2" value="CSS" style="rounded=1;whiteSpace=wrap;html=1;" vertex="1" parent="1">
          <mxGeometry x="120" y="240" width="40" height="40" as="geometry" />
        </mxCell>
        <mxCell id="Tfnw866Hx88FF2iFjDKs-5" style="edgeStyle=orthogonalEdgeStyle;rounded=0;orthogonalLoop=1;jettySize=auto;html=1;exitX=0.5;exitY=0;exitDx=0;exitDy=0;entryX=0.5;entryY=1;entryDx=0;entryDy=0;" edge="1" parent="1" source="Tfnw866Hx88FF2iFjDKs-4" target="Tfnw866Hx88FF2iFjDKs-1">
          <mxGeometry relative="1" as="geometry" />
        </mxCell>
        <mxCell id="Tfnw866Hx88FF2iFjDKs-7" style="edgeStyle=orthogonalEdgeStyle;rounded=0;orthogonalLoop=1;jettySize=auto;html=1;exitX=1;exitY=0.5;exitDx=0;exitDy=0;entryX=0;entryY=0.5;entryDx=0;entryDy=0;startArrow=classic;startFill=1;" edge="1" parent="1" source="Tfnw866Hx88FF2iFjDKs-4" target="Tfnw866Hx88FF2iFjDKs-6">
          <mxGeometry relative="1" as="geometry" />
        </mxCell>
        <mxCell id="Tfnw866Hx88FF2iFjDKs-9" value="AJAX" style="edgeLabel;html=1;align=center;verticalAlign=middle;resizable=0;points=[];" vertex="1" connectable="0" parent="Tfnw866Hx88FF2iFjDKs-7">
          <mxGeometry x="-0.1263" relative="1" as="geometry">
            <mxPoint y="-10.379999999999999" as="offset" />
          </mxGeometry>
        </mxCell>
        <mxCell id="Tfnw866Hx88FF2iFjDKs-4" value="JS&lt;br&gt;&lt;font style=&quot;font-size: 8px&quot;&gt;(jQuery)&lt;/font&gt;" style="rounded=1;whiteSpace=wrap;html=1;" vertex="1" parent="1">
          <mxGeometry x="200" y="240" width="40" height="40" as="geometry" />
        </mxCell>
        <mxCell id="Tfnw866Hx88FF2iFjDKs-6" value="PHP" style="rounded=1;whiteSpace=wrap;html=1;" vertex="1" parent="1">
          <mxGeometry x="320" y="160" width="120" height="40" as="geometry" />
        </mxCell>
        <mxCell id="Tfnw866Hx88FF2iFjDKs-10" value="&lt;h1&gt;Принципиальная схема&lt;/h1&gt;&lt;p&gt;Проект обязан содержать технологию AJAX для динамического изменения контента на странице. Было рекомендовано использовать библиотеку jQuery на frontend&#39;е. Backend написан на PHP.&amp;nbsp;&lt;/p&gt;" style="text;html=1;strokeColor=none;fillColor=none;spacing=5;spacingTop=-20;whiteSpace=wrap;overflow=hidden;rounded=0;" vertex="1" parent="1">
          <mxGeometry x="120" y="40" width="320" height="120" as="geometry" />
        </mxCell>
        <mxCell id="Tfnw866Hx88FF2iFjDKs-13" value="" style="shape=partialRectangle;whiteSpace=wrap;html=1;top=0;left=0;fillColor=none;strokeWidth=2;" vertex="1" parent="1">
          <mxGeometry x="120" y="50" width="330" height="240" as="geometry" />
        </mxCell>
        <mxCell id="Tfnw866Hx88FF2iFjDKs-14" value="&lt;h1&gt;Игровые этапы (Stage)&lt;/h1&gt;&lt;p&gt;В ходе взаимодействия игрока со страницей будет происходить смена игровых сцен, этапов.&lt;/p&gt;" style="text;html=1;strokeColor=none;fillColor=none;spacing=5;spacingTop=-20;whiteSpace=wrap;overflow=hidden;rounded=0;" vertex="1" parent="1">
          <mxGeometry x="120" y="350" width="440" height="90" as="geometry" />
        </mxCell>
        <mxCell id="Tfnw866Hx88FF2iFjDKs-151" style="edgeStyle=orthogonalEdgeStyle;rounded=0;orthogonalLoop=1;jettySize=auto;html=1;exitX=1;exitY=0.5;exitDx=0;exitDy=0;entryX=0;entryY=0.5;entryDx=0;entryDy=0;startArrow=none;startFill=0;strokeWidth=1;fontSize=12;" edge="1" parent="1" source="Tfnw866Hx88FF2iFjDKs-15" target="Tfnw866Hx88FF2iFjDKs-149">
          <mxGeometry relative="1" as="geometry" />
        </mxCell>
        <mxCell id="Tfnw866Hx88FF2iFjDKs-15" value="&lt;font style=&quot;font-size: 12px&quot;&gt;Заставка&lt;br&gt;Intro&lt;/font&gt;" style="rounded=1;whiteSpace=wrap;html=1;align=center;" vertex="1" parent="1">
          <mxGeometry x="120" y="440" width="80" height="40" as="geometry" />
        </mxCell>
        <mxCell id="Tfnw866Hx88FF2iFjDKs-21" style="edgeStyle=orthogonalEdgeStyle;rounded=0;orthogonalLoop=1;jettySize=auto;html=1;exitX=1;exitY=0.5;exitDx=0;exitDy=0;entryX=0;entryY=0.5;entryDx=0;entryDy=0;startArrow=none;startFill=0;" edge="1" parent="1" source="Tfnw866Hx88FF2iFjDKs-16" target="Tfnw866Hx88FF2iFjDKs-18">
          <mxGeometry relative="1" as="geometry" />
        </mxCell>
        <mxCell id="Tfnw866Hx88FF2iFjDKs-16" value="&lt;font style=&quot;font-size: 12px&quot;&gt;Лобби&lt;br&gt;Lobby&lt;/font&gt;" style="rounded=1;whiteSpace=wrap;html=1;align=center;" vertex="1" parent="1">
          <mxGeometry x="360" y="440" width="80" height="40" as="geometry" />
        </mxCell>
        <mxCell id="Tfnw866Hx88FF2iFjDKs-22" style="edgeStyle=orthogonalEdgeStyle;rounded=0;orthogonalLoop=1;jettySize=auto;html=1;exitX=1;exitY=0.5;exitDx=0;exitDy=0;entryX=0;entryY=0.5;entryDx=0;entryDy=0;startArrow=none;startFill=0;" edge="1" parent="1" source="Tfnw866Hx88FF2iFjDKs-18" target="Tfnw866Hx88FF2iFjDKs-20">
          <mxGeometry relative="1" as="geometry" />
        </mxCell>
        <mxCell id="Tfnw866Hx88FF2iFjDKs-18" value="&lt;span&gt;В игре&lt;br&gt;Ingame&lt;br&gt;&lt;/span&gt;" style="rounded=1;whiteSpace=wrap;html=1;align=center;" vertex="1" parent="1">
          <mxGeometry x="480" y="440" width="80" height="40" as="geometry" />
        </mxCell>
        <mxCell id="Tfnw866Hx88FF2iFjDKs-20" value="&lt;span&gt;Конец Игры&lt;br&gt;Endgame&lt;br&gt;&lt;/span&gt;" style="rounded=1;whiteSpace=wrap;html=1;align=center;" vertex="1" parent="1">
          <mxGeometry x="600" y="440" width="80" height="40" as="geometry" />
        </mxCell>
        <mxCell id="Tfnw866Hx88FF2iFjDKs-23" value="" style="shape=partialRectangle;whiteSpace=wrap;html=1;top=0;left=0;fillColor=none;strokeWidth=2;" vertex="1" parent="1">
          <mxGeometry x="120" y="360" width="570" height="130" as="geometry" />
        </mxCell>
        <mxCell id="Tfnw866Hx88FF2iFjDKs-25" value="&lt;h1&gt;Синхронизация&lt;/h1&gt;&lt;p&gt;Данный аспект может стать огромной проблемой. На момент проектирования предлагается следующая схема синхронизации:&lt;/p&gt;" style="text;html=1;strokeColor=none;fillColor=none;spacing=5;spacingTop=-20;whiteSpace=wrap;overflow=hidden;rounded=0;" vertex="1" parent="1">
          <mxGeometry x="120" y="550" width="400" height="80" as="geometry" />
        </mxCell>
        <mxCell id="Tfnw866Hx88FF2iFjDKs-62" value="" style="group" vertex="1" connectable="0" parent="1">
          <mxGeometry x="125" y="760" width="190" height="60" as="geometry" />
        </mxCell>
        <mxCell id="Tfnw866Hx88FF2iFjDKs-63" value="&lt;font style=&quot;font-size: 11px&quot;&gt;Клиент&lt;/font&gt;" style="shape=umlActor;verticalLabelPosition=bottom;verticalAlign=top;html=1;outlineConnect=0;align=center;" vertex="1" parent="Tfnw866Hx88FF2iFjDKs-62">
          <mxGeometry width="30" height="60" as="geometry" />
        </mxCell>
        <mxCell id="Tfnw866Hx88FF2iFjDKs-64" value="&lt;font style=&quot;font-size: 11px&quot;&gt;Клиент&lt;/font&gt;" style="shape=umlActor;verticalLabelPosition=bottom;verticalAlign=top;html=1;outlineConnect=0;align=center;" vertex="1" parent="Tfnw866Hx88FF2iFjDKs-62">
          <mxGeometry x="80" width="30" height="60" as="geometry" />
        </mxCell>
        <mxCell id="Tfnw866Hx88FF2iFjDKs-65" value="&lt;font style=&quot;font-size: 11px&quot;&gt;Клиент&lt;/font&gt;" style="shape=umlActor;verticalLabelPosition=bottom;verticalAlign=top;html=1;outlineConnect=0;align=center;" vertex="1" parent="Tfnw866Hx88FF2iFjDKs-62">
          <mxGeometry x="160" width="30" height="60" as="geometry" />
        </mxCell>
        <mxCell id="Tfnw866Hx88FF2iFjDKs-74" style="edgeStyle=orthogonalEdgeStyle;rounded=0;orthogonalLoop=1;jettySize=auto;html=1;exitX=0.25;exitY=1;exitDx=0;exitDy=0;entryX=0.5;entryY=0;entryDx=0;entryDy=0;entryPerimeter=0;startArrow=classic;startFill=1;" edge="1" parent="1" source="Tfnw866Hx88FF2iFjDKs-67" target="Tfnw866Hx88FF2iFjDKs-63">
          <mxGeometry relative="1" as="geometry" />
        </mxCell>
        <mxCell id="Tfnw866Hx88FF2iFjDKs-75" style="edgeStyle=orthogonalEdgeStyle;rounded=0;orthogonalLoop=1;jettySize=auto;html=1;exitX=0.5;exitY=1;exitDx=0;exitDy=0;entryX=0.5;entryY=0;entryDx=0;entryDy=0;entryPerimeter=0;startArrow=classic;startFill=1;" edge="1" parent="1" source="Tfnw866Hx88FF2iFjDKs-67" target="Tfnw866Hx88FF2iFjDKs-64">
          <mxGeometry relative="1" as="geometry" />
        </mxCell>
        <mxCell id="Tfnw866Hx88FF2iFjDKs-77" style="edgeStyle=orthogonalEdgeStyle;rounded=0;orthogonalLoop=1;jettySize=auto;html=1;exitX=0.75;exitY=1;exitDx=0;exitDy=0;entryX=0.5;entryY=0;entryDx=0;entryDy=0;entryPerimeter=0;startArrow=classic;startFill=1;" edge="1" parent="1" source="Tfnw866Hx88FF2iFjDKs-67" target="Tfnw866Hx88FF2iFjDKs-65">
          <mxGeometry relative="1" as="geometry" />
        </mxCell>
        <mxCell id="Tfnw866Hx88FF2iFjDKs-95" style="edgeStyle=orthogonalEdgeStyle;rounded=0;orthogonalLoop=1;jettySize=auto;html=1;exitX=1;exitY=0.75;exitDx=0;exitDy=0;entryX=0;entryY=0.75;entryDx=0;entryDy=0;startArrow=none;startFill=0;" edge="1" parent="1" source="Tfnw866Hx88FF2iFjDKs-67" target="Tfnw866Hx88FF2iFjDKs-71">
          <mxGeometry relative="1" as="geometry" />
        </mxCell>
        <mxCell id="Tfnw866Hx88FF2iFjDKs-67" value="PHP" style="rounded=1;whiteSpace=wrap;html=1;align=center;" vertex="1" parent="1">
          <mxGeometry x="200" y="680" width="40" height="40" as="geometry" />
        </mxCell>
        <mxCell id="Tfnw866Hx88FF2iFjDKs-96" style="edgeStyle=orthogonalEdgeStyle;rounded=0;orthogonalLoop=1;jettySize=auto;html=1;exitX=0;exitY=0.25;exitDx=0;exitDy=0;entryX=1;entryY=0.25;entryDx=0;entryDy=0;startArrow=none;startFill=0;" edge="1" parent="1" source="Tfnw866Hx88FF2iFjDKs-71" target="Tfnw866Hx88FF2iFjDKs-67">
          <mxGeometry relative="1" as="geometry" />
        </mxCell>
        <mxCell id="Tfnw866Hx88FF2iFjDKs-71" value="&lt;font style=&quot;font-size: 10px&quot;&gt;Буфер игровой сессии&lt;/font&gt;" style="rounded=1;whiteSpace=wrap;html=1;align=center;" vertex="1" parent="1">
          <mxGeometry x="280" y="680" width="80" height="40" as="geometry" />
        </mxCell>
        <mxCell id="Tfnw866Hx88FF2iFjDKs-72" value="&lt;b&gt;Обновление клиентов&lt;/b&gt;" style="text;html=1;strokeColor=none;fillColor=none;align=center;verticalAlign=middle;whiteSpace=wrap;rounded=0;" vertex="1" parent="1">
          <mxGeometry x="120" y="640" width="240" height="40" as="geometry" />
        </mxCell>
        <mxCell id="Tfnw866Hx88FF2iFjDKs-78" value="" style="group" vertex="1" connectable="0" parent="1">
          <mxGeometry x="405" y="760" width="190" height="60" as="geometry" />
        </mxCell>
        <mxCell id="Tfnw866Hx88FF2iFjDKs-79" value="&lt;font style=&quot;font-size: 11px&quot;&gt;Клиент&lt;/font&gt;" style="shape=umlActor;verticalLabelPosition=bottom;verticalAlign=top;html=1;outlineConnect=0;align=center;" vertex="1" parent="Tfnw866Hx88FF2iFjDKs-78">
          <mxGeometry width="30" height="60" as="geometry" />
        </mxCell>
        <mxCell id="Tfnw866Hx88FF2iFjDKs-80" value="&lt;span style=&quot;font-size: 11px&quot;&gt;Отвечающий&lt;/span&gt;" style="shape=umlActor;verticalLabelPosition=bottom;verticalAlign=top;html=1;outlineConnect=0;align=center;" vertex="1" parent="Tfnw866Hx88FF2iFjDKs-78">
          <mxGeometry x="80" width="30" height="60" as="geometry" />
        </mxCell>
        <mxCell id="Tfnw866Hx88FF2iFjDKs-81" value="&lt;font style=&quot;font-size: 11px&quot;&gt;Клиент&lt;/font&gt;" style="shape=umlActor;verticalLabelPosition=bottom;verticalAlign=top;html=1;outlineConnect=0;align=center;" vertex="1" parent="Tfnw866Hx88FF2iFjDKs-78">
          <mxGeometry x="160" width="30" height="60" as="geometry" />
        </mxCell>
        <mxCell id="Tfnw866Hx88FF2iFjDKs-89" style="edgeStyle=orthogonalEdgeStyle;rounded=0;orthogonalLoop=1;jettySize=auto;html=1;exitX=1;exitY=0.75;exitDx=0;exitDy=0;entryX=0;entryY=0.75;entryDx=0;entryDy=0;startArrow=none;startFill=0;" edge="1" parent="1" source="Tfnw866Hx88FF2iFjDKs-85" target="Tfnw866Hx88FF2iFjDKs-87">
          <mxGeometry relative="1" as="geometry" />
        </mxCell>
        <mxCell id="Tfnw866Hx88FF2iFjDKs-92" style="edgeStyle=orthogonalEdgeStyle;rounded=0;orthogonalLoop=1;jettySize=auto;html=1;exitX=0.25;exitY=1;exitDx=0;exitDy=0;entryX=0.5;entryY=0;entryDx=0;entryDy=0;entryPerimeter=0;startArrow=none;startFill=0;" edge="1" parent="1" source="Tfnw866Hx88FF2iFjDKs-85" target="Tfnw866Hx88FF2iFjDKs-79">
          <mxGeometry relative="1" as="geometry" />
        </mxCell>
        <mxCell id="Tfnw866Hx88FF2iFjDKs-93" style="edgeStyle=orthogonalEdgeStyle;rounded=0;orthogonalLoop=1;jettySize=auto;html=1;exitX=0.75;exitY=1;exitDx=0;exitDy=0;entryX=0.5;entryY=0;entryDx=0;entryDy=0;entryPerimeter=0;startArrow=none;startFill=0;" edge="1" parent="1" source="Tfnw866Hx88FF2iFjDKs-85" target="Tfnw866Hx88FF2iFjDKs-81">
          <mxGeometry relative="1" as="geometry" />
        </mxCell>
        <mxCell id="Tfnw866Hx88FF2iFjDKs-94" style="edgeStyle=orthogonalEdgeStyle;rounded=0;orthogonalLoop=1;jettySize=auto;html=1;exitX=0.5;exitY=1;exitDx=0;exitDy=0;entryX=0.5;entryY=0;entryDx=0;entryDy=0;entryPerimeter=0;startArrow=none;startFill=0;" edge="1" parent="1" source="Tfnw866Hx88FF2iFjDKs-85" target="Tfnw866Hx88FF2iFjDKs-80">
          <mxGeometry relative="1" as="geometry" />
        </mxCell>
        <mxCell id="Tfnw866Hx88FF2iFjDKs-85" value="PHP" style="rounded=1;whiteSpace=wrap;html=1;align=center;" vertex="1" parent="1">
          <mxGeometry x="480" y="680" width="40" height="40" as="geometry" />
        </mxCell>
        <mxCell id="Tfnw866Hx88FF2iFjDKs-90" style="edgeStyle=orthogonalEdgeStyle;rounded=0;orthogonalLoop=1;jettySize=auto;html=1;exitX=0;exitY=0.25;exitDx=0;exitDy=0;entryX=1;entryY=0.25;entryDx=0;entryDy=0;startArrow=none;startFill=0;" edge="1" parent="1" source="Tfnw866Hx88FF2iFjDKs-87" target="Tfnw866Hx88FF2iFjDKs-85">
          <mxGeometry relative="1" as="geometry" />
        </mxCell>
        <mxCell id="Tfnw866Hx88FF2iFjDKs-87" value="&lt;font style=&quot;font-size: 10px&quot;&gt;Буфер игровой сессии&lt;/font&gt;" style="rounded=1;whiteSpace=wrap;html=1;align=center;" vertex="1" parent="1">
          <mxGeometry x="560" y="680" width="80" height="40" as="geometry" />
        </mxCell>
        <mxCell id="Tfnw866Hx88FF2iFjDKs-88" value="&lt;b&gt;Внутриигровой ответ на вопрос&lt;/b&gt;" style="text;html=1;strokeColor=none;fillColor=none;align=center;verticalAlign=middle;whiteSpace=wrap;rounded=0;" vertex="1" parent="1">
          <mxGeometry x="400" y="640" width="240" height="40" as="geometry" />
        </mxCell>
        <mxCell id="Tfnw866Hx88FF2iFjDKs-91" style="edgeStyle=orthogonalEdgeStyle;rounded=0;orthogonalLoop=1;jettySize=auto;html=1;exitX=0.5;exitY=0;exitDx=0;exitDy=0;exitPerimeter=0;entryX=0.5;entryY=1;entryDx=0;entryDy=0;startArrow=none;startFill=0;" edge="1" parent="1" source="Tfnw866Hx88FF2iFjDKs-80" target="Tfnw866Hx88FF2iFjDKs-85">
          <mxGeometry relative="1" as="geometry" />
        </mxCell>
        <mxCell id="Tfnw866Hx88FF2iFjDKs-99" value="" style="group" vertex="1" connectable="0" parent="1">
          <mxGeometry x="125" y="960" width="190" height="60" as="geometry" />
        </mxCell>
        <mxCell id="Tfnw866Hx88FF2iFjDKs-100" value="&lt;font style=&quot;font-size: 11px&quot;&gt;Клиент&lt;/font&gt;" style="shape=umlActor;verticalLabelPosition=bottom;verticalAlign=top;html=1;outlineConnect=0;align=center;" vertex="1" parent="Tfnw866Hx88FF2iFjDKs-99">
          <mxGeometry width="30" height="60" as="geometry" />
        </mxCell>
        <mxCell id="Tfnw866Hx88FF2iFjDKs-101" value="&lt;span style=&quot;font-size: 11px&quot;&gt;Отключающийся&lt;/span&gt;" style="shape=umlActor;verticalLabelPosition=bottom;verticalAlign=top;html=1;outlineConnect=0;align=center;" vertex="1" parent="Tfnw866Hx88FF2iFjDKs-99">
          <mxGeometry x="80" width="30" height="60" as="geometry" />
        </mxCell>
        <mxCell id="Tfnw866Hx88FF2iFjDKs-102" value="&lt;font style=&quot;font-size: 11px&quot;&gt;Клиент&lt;/font&gt;" style="shape=umlActor;verticalLabelPosition=bottom;verticalAlign=top;html=1;outlineConnect=0;align=center;" vertex="1" parent="Tfnw866Hx88FF2iFjDKs-99">
          <mxGeometry x="160" width="30" height="60" as="geometry" />
        </mxCell>
        <mxCell id="Tfnw866Hx88FF2iFjDKs-103" style="edgeStyle=orthogonalEdgeStyle;rounded=0;orthogonalLoop=1;jettySize=auto;html=1;exitX=1;exitY=0.75;exitDx=0;exitDy=0;entryX=0;entryY=0.75;entryDx=0;entryDy=0;startArrow=none;startFill=0;" edge="1" parent="1" source="Tfnw866Hx88FF2iFjDKs-107" target="Tfnw866Hx88FF2iFjDKs-109">
          <mxGeometry relative="1" as="geometry" />
        </mxCell>
        <mxCell id="Tfnw866Hx88FF2iFjDKs-104" style="edgeStyle=orthogonalEdgeStyle;rounded=0;orthogonalLoop=1;jettySize=auto;html=1;exitX=0.25;exitY=1;exitDx=0;exitDy=0;entryX=0.5;entryY=0;entryDx=0;entryDy=0;entryPerimeter=0;startArrow=none;startFill=0;" edge="1" parent="1" source="Tfnw866Hx88FF2iFjDKs-107" target="Tfnw866Hx88FF2iFjDKs-100">
          <mxGeometry relative="1" as="geometry" />
        </mxCell>
        <mxCell id="Tfnw866Hx88FF2iFjDKs-105" style="edgeStyle=orthogonalEdgeStyle;rounded=0;orthogonalLoop=1;jettySize=auto;html=1;exitX=0.75;exitY=1;exitDx=0;exitDy=0;entryX=0.5;entryY=0;entryDx=0;entryDy=0;entryPerimeter=0;startArrow=none;startFill=0;" edge="1" parent="1" source="Tfnw866Hx88FF2iFjDKs-107" target="Tfnw866Hx88FF2iFjDKs-102">
          <mxGeometry relative="1" as="geometry" />
        </mxCell>
        <mxCell id="Tfnw866Hx88FF2iFjDKs-107" value="PHP" style="rounded=1;whiteSpace=wrap;html=1;align=center;" vertex="1" parent="1">
          <mxGeometry x="200" y="880" width="40" height="40" as="geometry" />
        </mxCell>
        <mxCell id="Tfnw866Hx88FF2iFjDKs-108" style="edgeStyle=orthogonalEdgeStyle;rounded=0;orthogonalLoop=1;jettySize=auto;html=1;exitX=0;exitY=0.25;exitDx=0;exitDy=0;entryX=1;entryY=0.25;entryDx=0;entryDy=0;startArrow=none;startFill=0;" edge="1" parent="1" source="Tfnw866Hx88FF2iFjDKs-109" target="Tfnw866Hx88FF2iFjDKs-107">
          <mxGeometry relative="1" as="geometry" />
        </mxCell>
        <mxCell id="Tfnw866Hx88FF2iFjDKs-109" value="&lt;font style=&quot;font-size: 10px&quot;&gt;Буфер игровой сессии&lt;/font&gt;" style="rounded=1;whiteSpace=wrap;html=1;align=center;" vertex="1" parent="1">
          <mxGeometry x="280" y="880" width="80" height="40" as="geometry" />
        </mxCell>
        <mxCell id="Tfnw866Hx88FF2iFjDKs-110" value="&lt;b&gt;Отключение клиентов&lt;/b&gt;" style="text;html=1;strokeColor=none;fillColor=none;align=center;verticalAlign=middle;whiteSpace=wrap;rounded=0;" vertex="1" parent="1">
          <mxGeometry x="120" y="840" width="240" height="40" as="geometry" />
        </mxCell>
        <mxCell id="Tfnw866Hx88FF2iFjDKs-113" style="edgeStyle=orthogonalEdgeStyle;rounded=0;orthogonalLoop=1;jettySize=auto;html=1;exitX=0.5;exitY=0;exitDx=0;exitDy=0;exitPerimeter=0;entryX=0.5;entryY=1;entryDx=0;entryDy=0;startArrow=none;startFill=0;" edge="1" parent="1" source="Tfnw866Hx88FF2iFjDKs-101" target="Tfnw866Hx88FF2iFjDKs-107">
          <mxGeometry relative="1" as="geometry" />
        </mxCell>
        <mxCell id="Tfnw866Hx88FF2iFjDKs-114" value="Beacon" style="edgeLabel;html=1;align=center;verticalAlign=middle;resizable=0;points=[];fontSize=10;" vertex="1" connectable="0" parent="Tfnw866Hx88FF2iFjDKs-113">
          <mxGeometry x="-0.3035" relative="1" as="geometry">
            <mxPoint y="3.95" as="offset" />
          </mxGeometry>
        </mxCell>
        <mxCell id="Tfnw866Hx88FF2iFjDKs-115" value="" style="group" vertex="1" connectable="0" parent="1">
          <mxGeometry x="405" y="960" width="265" height="100" as="geometry" />
        </mxCell>
        <mxCell id="Tfnw866Hx88FF2iFjDKs-116" value="&lt;font style=&quot;font-size: 11px&quot;&gt;Отключ.&lt;/font&gt;" style="shape=umlActor;verticalLabelPosition=bottom;verticalAlign=top;html=1;outlineConnect=0;align=center;" vertex="1" parent="Tfnw866Hx88FF2iFjDKs-115">
          <mxGeometry width="30" height="60" as="geometry" />
        </mxCell>
        <mxCell id="Tfnw866Hx88FF2iFjDKs-117" value="&lt;span style=&quot;font-size: 11px&quot;&gt;Отключ.&lt;/span&gt;" style="shape=umlActor;verticalLabelPosition=bottom;verticalAlign=top;html=1;outlineConnect=0;align=center;" vertex="1" parent="Tfnw866Hx88FF2iFjDKs-115">
          <mxGeometry x="80" width="30" height="60" as="geometry" />
        </mxCell>
        <mxCell id="Tfnw866Hx88FF2iFjDKs-118" value="&lt;font style=&quot;font-size: 11px&quot;&gt;Отключ.&lt;/font&gt;" style="shape=umlActor;verticalLabelPosition=bottom;verticalAlign=top;html=1;outlineConnect=0;align=center;" vertex="1" parent="Tfnw866Hx88FF2iFjDKs-115">
          <mxGeometry x="160" width="30" height="60" as="geometry" />
        </mxCell>
        <mxCell id="Tfnw866Hx88FF2iFjDKs-134" style="edgeStyle=orthogonalEdgeStyle;rounded=0;orthogonalLoop=1;jettySize=auto;html=1;exitX=1;exitY=0.5;exitDx=0;exitDy=0;entryX=0;entryY=0.5;entryDx=0;entryDy=0;startArrow=none;startFill=0;fontSize=10;" edge="1" parent="1" source="Tfnw866Hx88FF2iFjDKs-123" target="Tfnw866Hx88FF2iFjDKs-125">
          <mxGeometry relative="1" as="geometry" />
        </mxCell>
        <mxCell id="Tfnw866Hx88FF2iFjDKs-135" value="&lt;font style=&quot;font-size: 9px&quot;&gt;Delete&lt;/font&gt;" style="edgeLabel;html=1;align=center;verticalAlign=middle;resizable=0;points=[];fontSize=10;" vertex="1" connectable="0" parent="Tfnw866Hx88FF2iFjDKs-134">
          <mxGeometry x="-0.2667" y="1" relative="1" as="geometry">
            <mxPoint as="offset" />
          </mxGeometry>
        </mxCell>
        <mxCell id="Tfnw866Hx88FF2iFjDKs-123" value="PHP" style="rounded=1;whiteSpace=wrap;html=1;align=center;" vertex="1" parent="1">
          <mxGeometry x="480" y="880" width="40" height="40" as="geometry" />
        </mxCell>
        <mxCell id="Tfnw866Hx88FF2iFjDKs-125" value="&lt;font style=&quot;font-size: 10px&quot;&gt;Буфер игровой сессии&lt;/font&gt;" style="rounded=1;whiteSpace=wrap;html=1;align=center;" vertex="1" parent="1">
          <mxGeometry x="560" y="880" width="80" height="40" as="geometry" />
        </mxCell>
        <mxCell id="Tfnw866Hx88FF2iFjDKs-126" value="&lt;b&gt;Завершении сессии&lt;/b&gt;" style="text;html=1;strokeColor=none;fillColor=none;align=center;verticalAlign=middle;whiteSpace=wrap;rounded=0;" vertex="1" parent="1">
          <mxGeometry x="400" y="840" width="240" height="40" as="geometry" />
        </mxCell>
        <mxCell id="Tfnw866Hx88FF2iFjDKs-128" style="edgeStyle=orthogonalEdgeStyle;rounded=0;orthogonalLoop=1;jettySize=auto;html=1;exitX=0.5;exitY=0;exitDx=0;exitDy=0;exitPerimeter=0;entryX=0.25;entryY=1;entryDx=0;entryDy=0;startArrow=none;startFill=0;fontSize=10;" edge="1" parent="1" source="Tfnw866Hx88FF2iFjDKs-116" target="Tfnw866Hx88FF2iFjDKs-123">
          <mxGeometry relative="1" as="geometry" />
        </mxCell>
        <mxCell id="Tfnw866Hx88FF2iFjDKs-131" value="Beacon" style="edgeLabel;html=1;align=center;verticalAlign=middle;resizable=0;points=[];fontSize=10;" vertex="1" connectable="0" parent="Tfnw866Hx88FF2iFjDKs-128">
          <mxGeometry x="-0.5127" relative="1" as="geometry">
            <mxPoint as="offset" />
          </mxGeometry>
        </mxCell>
        <mxCell id="Tfnw866Hx88FF2iFjDKs-129" style="edgeStyle=orthogonalEdgeStyle;rounded=0;orthogonalLoop=1;jettySize=auto;html=1;exitX=0.5;exitY=0;exitDx=0;exitDy=0;exitPerimeter=0;entryX=0.5;entryY=1;entryDx=0;entryDy=0;startArrow=none;startFill=0;fontSize=10;" edge="1" parent="1" source="Tfnw866Hx88FF2iFjDKs-117" target="Tfnw866Hx88FF2iFjDKs-123">
          <mxGeometry relative="1" as="geometry" />
        </mxCell>
        <mxCell id="Tfnw866Hx88FF2iFjDKs-133" value="Beacon" style="edgeLabel;html=1;align=center;verticalAlign=middle;resizable=0;points=[];fontSize=10;" vertex="1" connectable="0" parent="Tfnw866Hx88FF2iFjDKs-129">
          <mxGeometry x="-0.3015" y="-1" relative="1" as="geometry">
            <mxPoint x="-1" y="3.98" as="offset" />
          </mxGeometry>
        </mxCell>
        <mxCell id="Tfnw866Hx88FF2iFjDKs-130" style="edgeStyle=orthogonalEdgeStyle;rounded=0;orthogonalLoop=1;jettySize=auto;html=1;exitX=0.5;exitY=0;exitDx=0;exitDy=0;exitPerimeter=0;entryX=0.75;entryY=1;entryDx=0;entryDy=0;startArrow=none;startFill=0;fontSize=10;" edge="1" parent="1" source="Tfnw866Hx88FF2iFjDKs-118" target="Tfnw866Hx88FF2iFjDKs-123">
          <mxGeometry relative="1" as="geometry" />
        </mxCell>
        <mxCell id="Tfnw866Hx88FF2iFjDKs-132" value="Beacon" style="edgeLabel;html=1;align=center;verticalAlign=middle;resizable=0;points=[];fontSize=10;" vertex="1" connectable="0" parent="Tfnw866Hx88FF2iFjDKs-130">
          <mxGeometry x="-0.5273" y="1" relative="1" as="geometry">
            <mxPoint as="offset" />
          </mxGeometry>
        </mxCell>
        <mxCell id="Tfnw866Hx88FF2iFjDKs-136" value="" style="shape=partialRectangle;whiteSpace=wrap;html=1;top=0;left=0;fillColor=none;rounded=0;strokeColor=#000000;strokeWidth=2;align=center;" vertex="1" parent="1">
          <mxGeometry x="120" y="560" width="530" height="490" as="geometry" />
        </mxCell>
        <mxCell id="Tfnw866Hx88FF2iFjDKs-137" value="&lt;h1 style=&quot;font-size: 24px&quot;&gt;&lt;font style=&quot;font-size: 24px&quot;&gt;Дополнительно&lt;/font&gt;&lt;/h1&gt;&lt;p&gt;&lt;font style=&quot;font-size: 12px&quot;&gt;Для игры также рекомендуется наличие соответствующего графического и звукового сопровождения. Данный раздел является вторичным.&lt;/font&gt;&lt;/p&gt;" style="text;html=1;strokeColor=none;fillColor=none;spacing=5;spacingTop=-20;whiteSpace=wrap;overflow=hidden;rounded=0;fontSize=10;align=left;" vertex="1" parent="1">
          <mxGeometry x="480" y="40" width="250" height="120" as="geometry" />
        </mxCell>
        <mxCell id="Tfnw866Hx88FF2iFjDKs-139" value="&lt;font style=&quot;font-size: 12px;&quot;&gt;Звук&lt;br style=&quot;font-size: 12px;&quot;&gt;&lt;/font&gt;" style="rounded=1;whiteSpace=wrap;html=1;strokeColor=#000000;strokeWidth=1;fillColor=none;fontSize=12;align=center;" vertex="1" parent="1">
          <mxGeometry x="640" y="160" width="80" height="40" as="geometry" />
        </mxCell>
        <mxCell id="Tfnw866Hx88FF2iFjDKs-140" value="&lt;font style=&quot;font-size: 12px;&quot;&gt;Графика&lt;/font&gt;" style="rounded=1;whiteSpace=wrap;html=1;strokeColor=#000000;strokeWidth=1;fillColor=none;fontSize=12;align=center;" vertex="1" parent="1">
          <mxGeometry x="640" y="240" width="80" height="40" as="geometry" />
        </mxCell>
        <mxCell id="Tfnw866Hx88FF2iFjDKs-142" style="edgeStyle=orthogonalEdgeStyle;rounded=0;orthogonalLoop=1;jettySize=auto;html=1;exitX=1;exitY=0.5;exitDx=0;exitDy=0;entryX=0;entryY=0.5;entryDx=0;entryDy=0;startArrow=none;startFill=0;fontSize=12;strokeWidth=1;" edge="1" parent="1" source="Tfnw866Hx88FF2iFjDKs-141" target="Tfnw866Hx88FF2iFjDKs-139">
          <mxGeometry relative="1" as="geometry" />
        </mxCell>
        <mxCell id="Tfnw866Hx88FF2iFjDKs-141" value="JS&lt;br&gt;SoundMaster" style="rounded=1;whiteSpace=wrap;html=1;strokeColor=#000000;strokeWidth=1;fillColor=none;fontSize=12;align=center;" vertex="1" parent="1">
          <mxGeometry x="480" y="160" width="80" height="40" as="geometry" />
        </mxCell>
        <mxCell id="Tfnw866Hx88FF2iFjDKs-144" style="edgeStyle=orthogonalEdgeStyle;rounded=0;orthogonalLoop=1;jettySize=auto;html=1;exitX=1;exitY=0.5;exitDx=0;exitDy=0;entryX=0;entryY=0.5;entryDx=0;entryDy=0;startArrow=none;startFill=0;fontSize=12;strokeWidth=1;" edge="1" parent="1" source="Tfnw866Hx88FF2iFjDKs-143" target="Tfnw866Hx88FF2iFjDKs-140">
          <mxGeometry relative="1" as="geometry" />
        </mxCell>
        <mxCell id="Tfnw866Hx88FF2iFjDKs-143" value="CSS" style="rounded=1;whiteSpace=wrap;html=1;strokeColor=#000000;strokeWidth=1;fillColor=none;fontSize=12;align=center;" vertex="1" parent="1">
          <mxGeometry x="480" y="240" width="80" height="40" as="geometry" />
        </mxCell>
        <mxCell id="Tfnw866Hx88FF2iFjDKs-148" value="" style="shape=partialRectangle;whiteSpace=wrap;html=1;top=0;left=0;fillColor=none;rounded=0;strokeColor=#000000;strokeWidth=2;fontSize=12;align=center;" vertex="1" parent="1">
          <mxGeometry x="480" y="50" width="250" height="240" as="geometry" />
        </mxCell>
        <mxCell id="Tfnw866Hx88FF2iFjDKs-152" style="edgeStyle=orthogonalEdgeStyle;rounded=0;orthogonalLoop=1;jettySize=auto;html=1;exitX=1;exitY=0.5;exitDx=0;exitDy=0;entryX=0;entryY=0.5;entryDx=0;entryDy=0;startArrow=none;startFill=0;strokeWidth=1;fontSize=12;" edge="1" parent="1" source="Tfnw866Hx88FF2iFjDKs-149" target="Tfnw866Hx88FF2iFjDKs-16">
          <mxGeometry relative="1" as="geometry" />
        </mxCell>
        <mxCell id="Tfnw866Hx88FF2iFjDKs-149" value="Авторизация&lt;br&gt;Login" style="rounded=1;whiteSpace=wrap;html=1;align=center;" vertex="1" parent="1">
          <mxGeometry x="240" y="440" width="80" height="40" as="geometry" />
        </mxCell>
      </root>
    </mxGraphModel>
  </diagram>
</mxfile>
